<mxfile host="app.diagrams.net" modified="2022-12-14T09:50:41.895Z" agent="5.0 (Windows)" version="20.6.0" etag="ZdW0XSu0HFKWx6z9WCTP" type="github">
  <diagram id="W9aKF14Ha8pWVmVTF3IQ" name="Seite-1">
    <mxGraphModel dx="1038" dy="564" grid="1" gridSize="10" guides="1" tooltips="1" connect="1" arrows="1" fold="1" page="1" pageScale="1" pageWidth="827" pageHeight="1169" math="0" shadow="0">
      <root>
        <mxCell id="0" />
        <mxCell id="1" parent="0" />
        <mxCell id="9BiTmk-PqYOJWmD8OITf-1" value="Member" style="rounded=0;whiteSpace=wrap;html=1;" vertex="1" parent="1">
          <mxGeometry x="210" y="210" width="120" height="60" as="geometry" />
        </mxCell>
        <mxCell id="9BiTmk-PqYOJWmD8OITf-2" value="Member_ID" style="ellipse;whiteSpace=wrap;html=1;" vertex="1" parent="1">
          <mxGeometry x="230" y="120" width="80" height="40" as="geometry" />
        </mxCell>
        <mxCell id="9BiTmk-PqYOJWmD8OITf-4" value="Vorname" style="ellipse;whiteSpace=wrap;html=1;" vertex="1" parent="1">
          <mxGeometry x="100" y="140" width="90" height="50" as="geometry" />
        </mxCell>
        <mxCell id="9BiTmk-PqYOJWmD8OITf-6" value="Nachname" style="ellipse;whiteSpace=wrap;html=1;" vertex="1" parent="1">
          <mxGeometry x="90" y="220" width="90" height="50" as="geometry" />
        </mxCell>
        <mxCell id="9BiTmk-PqYOJWmD8OITf-7" value="Geburtstag" style="ellipse;whiteSpace=wrap;html=1;" vertex="1" parent="1">
          <mxGeometry x="170" y="300" width="90" height="50" as="geometry" />
        </mxCell>
        <mxCell id="9BiTmk-PqYOJWmD8OITf-8" value="Adresse" style="rounded=0;whiteSpace=wrap;html=1;" vertex="1" parent="1">
          <mxGeometry x="580" y="210" width="120" height="60" as="geometry" />
        </mxCell>
        <mxCell id="9BiTmk-PqYOJWmD8OITf-9" value="wohnt in" style="rhombus;whiteSpace=wrap;html=1;" vertex="1" parent="1">
          <mxGeometry x="390" y="210" width="130" height="60" as="geometry" />
        </mxCell>
        <mxCell id="9BiTmk-PqYOJWmD8OITf-12" value="" style="endArrow=none;html=1;rounded=0;exitX=1;exitY=0.5;exitDx=0;exitDy=0;" edge="1" parent="1" source="9BiTmk-PqYOJWmD8OITf-1">
          <mxGeometry width="50" height="50" relative="1" as="geometry">
            <mxPoint x="340" y="290" as="sourcePoint" />
            <mxPoint x="390" y="240" as="targetPoint" />
          </mxGeometry>
        </mxCell>
        <mxCell id="9BiTmk-PqYOJWmD8OITf-13" value="" style="endArrow=none;html=1;rounded=0;exitX=1;exitY=0.5;exitDx=0;exitDy=0;entryX=0;entryY=0.5;entryDx=0;entryDy=0;" edge="1" parent="1" source="9BiTmk-PqYOJWmD8OITf-9" target="9BiTmk-PqYOJWmD8OITf-8">
          <mxGeometry width="50" height="50" relative="1" as="geometry">
            <mxPoint x="520" y="270" as="sourcePoint" />
            <mxPoint x="570" y="220" as="targetPoint" />
          </mxGeometry>
        </mxCell>
        <mxCell id="9BiTmk-PqYOJWmD8OITf-15" value="Hausnummer" style="ellipse;whiteSpace=wrap;html=1;" vertex="1" parent="1">
          <mxGeometry x="570" y="300" width="120" height="80" as="geometry" />
        </mxCell>
        <mxCell id="9BiTmk-PqYOJWmD8OITf-16" value="PLZ" style="rounded=0;whiteSpace=wrap;html=1;" vertex="1" parent="1">
          <mxGeometry x="580" width="120" height="60" as="geometry" />
        </mxCell>
        <mxCell id="9BiTmk-PqYOJWmD8OITf-18" value="aktiv seit" style="ellipse;whiteSpace=wrap;html=1;" vertex="1" parent="1">
          <mxGeometry x="290" y="300" width="90" height="50" as="geometry" />
        </mxCell>
        <mxCell id="9BiTmk-PqYOJWmD8OITf-20" value="StraÃŸe" style="ellipse;whiteSpace=wrap;html=1;" vertex="1" parent="1">
          <mxGeometry x="730" y="215" width="90" height="50" as="geometry" />
        </mxCell>
        <mxCell id="9BiTmk-PqYOJWmD8OITf-21" value="Stadt" style="ellipse;whiteSpace=wrap;html=1;" vertex="1" parent="1">
          <mxGeometry x="730" width="120" height="60" as="geometry" />
        </mxCell>
        <mxCell id="9BiTmk-PqYOJWmD8OITf-24" value="" style="endArrow=none;html=1;rounded=0;entryX=0.5;entryY=1;entryDx=0;entryDy=0;startArrow=none;" edge="1" parent="1" source="9BiTmk-PqYOJWmD8OITf-26" target="9BiTmk-PqYOJWmD8OITf-16">
          <mxGeometry width="50" height="50" relative="1" as="geometry">
            <mxPoint x="620" y="140" as="sourcePoint" />
            <mxPoint x="670" y="90" as="targetPoint" />
            <Array as="points" />
          </mxGeometry>
        </mxCell>
        <mxCell id="9BiTmk-PqYOJWmD8OITf-26" value="hat" style="rhombus;whiteSpace=wrap;html=1;" vertex="1" parent="1">
          <mxGeometry x="590" y="100" width="100" height="60" as="geometry" />
        </mxCell>
        <mxCell id="9BiTmk-PqYOJWmD8OITf-28" value="" style="endArrow=none;html=1;rounded=0;entryX=0.5;entryY=1;entryDx=0;entryDy=0;exitX=0.5;exitY=0;exitDx=0;exitDy=0;" edge="1" parent="1" source="9BiTmk-PqYOJWmD8OITf-8" target="9BiTmk-PqYOJWmD8OITf-26">
          <mxGeometry width="50" height="50" relative="1" as="geometry">
            <mxPoint x="610" y="230" as="sourcePoint" />
            <mxPoint x="660" y="180" as="targetPoint" />
          </mxGeometry>
        </mxCell>
        <mxCell id="9BiTmk-PqYOJWmD8OITf-29" value="" style="endArrow=none;html=1;rounded=0;entryX=0;entryY=0.5;entryDx=0;entryDy=0;exitX=1;exitY=0.5;exitDx=0;exitDy=0;" edge="1" parent="1" source="9BiTmk-PqYOJWmD8OITf-16" target="9BiTmk-PqYOJWmD8OITf-21">
          <mxGeometry width="50" height="50" relative="1" as="geometry">
            <mxPoint x="690" y="70" as="sourcePoint" />
            <mxPoint x="740" y="20" as="targetPoint" />
          </mxGeometry>
        </mxCell>
        <mxCell id="9BiTmk-PqYOJWmD8OITf-31" value="PLZ_ID" style="ellipse;whiteSpace=wrap;html=1;" vertex="1" parent="1">
          <mxGeometry x="414" width="120" height="60" as="geometry" />
        </mxCell>
        <mxCell id="9BiTmk-PqYOJWmD8OITf-32" value="PLZ_Nummer" style="ellipse;whiteSpace=wrap;html=1;" vertex="1" parent="1">
          <mxGeometry x="730" y="70" width="120" height="60" as="geometry" />
        </mxCell>
        <mxCell id="9BiTmk-PqYOJWmD8OITf-34" value="Adresse_ID" style="ellipse;whiteSpace=wrap;html=1;" vertex="1" parent="1">
          <mxGeometry x="720" y="295" width="120" height="60" as="geometry" />
        </mxCell>
        <mxCell id="9BiTmk-PqYOJWmD8OITf-35" value="" style="endArrow=none;html=1;rounded=0;entryX=0.5;entryY=1;entryDx=0;entryDy=0;" edge="1" parent="1" target="9BiTmk-PqYOJWmD8OITf-2">
          <mxGeometry width="50" height="50" relative="1" as="geometry">
            <mxPoint x="270" y="210" as="sourcePoint" />
            <mxPoint x="320" y="160" as="targetPoint" />
          </mxGeometry>
        </mxCell>
        <mxCell id="9BiTmk-PqYOJWmD8OITf-36" value="" style="endArrow=none;html=1;rounded=0;exitX=0.017;exitY=0.117;exitDx=0;exitDy=0;exitPerimeter=0;" edge="1" parent="1" source="9BiTmk-PqYOJWmD8OITf-1">
          <mxGeometry width="50" height="50" relative="1" as="geometry">
            <mxPoint x="140" y="220" as="sourcePoint" />
            <mxPoint x="190" y="170" as="targetPoint" />
          </mxGeometry>
        </mxCell>
        <mxCell id="9BiTmk-PqYOJWmD8OITf-37" value="" style="endArrow=none;html=1;rounded=0;exitX=1;exitY=0.5;exitDx=0;exitDy=0;" edge="1" parent="1" source="9BiTmk-PqYOJWmD8OITf-6">
          <mxGeometry width="50" height="50" relative="1" as="geometry">
            <mxPoint x="160" y="290" as="sourcePoint" />
            <mxPoint x="210" y="240" as="targetPoint" />
          </mxGeometry>
        </mxCell>
        <mxCell id="9BiTmk-PqYOJWmD8OITf-38" value="" style="endArrow=none;html=1;rounded=0;exitX=0.5;exitY=0;exitDx=0;exitDy=0;" edge="1" parent="1" source="9BiTmk-PqYOJWmD8OITf-7" target="9BiTmk-PqYOJWmD8OITf-1">
          <mxGeometry width="50" height="50" relative="1" as="geometry">
            <mxPoint x="130" y="340" as="sourcePoint" />
            <mxPoint x="180" y="290" as="targetPoint" />
          </mxGeometry>
        </mxCell>
        <mxCell id="9BiTmk-PqYOJWmD8OITf-39" value="" style="endArrow=none;html=1;rounded=0;entryX=0.75;entryY=1;entryDx=0;entryDy=0;" edge="1" parent="1" target="9BiTmk-PqYOJWmD8OITf-1">
          <mxGeometry width="50" height="50" relative="1" as="geometry">
            <mxPoint x="330" y="300" as="sourcePoint" />
            <mxPoint x="380" y="250" as="targetPoint" />
          </mxGeometry>
        </mxCell>
        <mxCell id="9BiTmk-PqYOJWmD8OITf-42" value="" style="endArrow=none;html=1;rounded=0;exitX=0.5;exitY=0;exitDx=0;exitDy=0;" edge="1" parent="1" source="9BiTmk-PqYOJWmD8OITf-15">
          <mxGeometry width="50" height="50" relative="1" as="geometry">
            <mxPoint x="590" y="315" as="sourcePoint" />
            <mxPoint x="640" y="270" as="targetPoint" />
          </mxGeometry>
        </mxCell>
        <mxCell id="9BiTmk-PqYOJWmD8OITf-43" value="" style="endArrow=none;html=1;rounded=0;entryX=1;entryY=1;entryDx=0;entryDy=0;exitX=0;exitY=0;exitDx=0;exitDy=0;" edge="1" parent="1" source="9BiTmk-PqYOJWmD8OITf-34" target="9BiTmk-PqYOJWmD8OITf-8">
          <mxGeometry width="50" height="50" relative="1" as="geometry">
            <mxPoint x="680" y="300" as="sourcePoint" />
            <mxPoint x="730" y="250" as="targetPoint" />
          </mxGeometry>
        </mxCell>
        <mxCell id="9BiTmk-PqYOJWmD8OITf-44" value="" style="endArrow=none;html=1;rounded=0;exitX=1;exitY=0.5;exitDx=0;exitDy=0;entryX=0;entryY=0.5;entryDx=0;entryDy=0;" edge="1" parent="1" source="9BiTmk-PqYOJWmD8OITf-8" target="9BiTmk-PqYOJWmD8OITf-20">
          <mxGeometry width="50" height="50" relative="1" as="geometry">
            <mxPoint x="680" y="280" as="sourcePoint" />
            <mxPoint x="730" y="230" as="targetPoint" />
          </mxGeometry>
        </mxCell>
        <mxCell id="9BiTmk-PqYOJWmD8OITf-45" value="" style="endArrow=none;html=1;rounded=0;exitX=0;exitY=0.5;exitDx=0;exitDy=0;" edge="1" parent="1" source="9BiTmk-PqYOJWmD8OITf-16">
          <mxGeometry width="50" height="50" relative="1" as="geometry">
            <mxPoint x="484" y="80" as="sourcePoint" />
            <mxPoint x="534" y="30" as="targetPoint" />
          </mxGeometry>
        </mxCell>
        <mxCell id="9BiTmk-PqYOJWmD8OITf-46" value="" style="endArrow=none;html=1;rounded=0;exitX=0;exitY=0.5;exitDx=0;exitDy=0;" edge="1" parent="1" source="9BiTmk-PqYOJWmD8OITf-32">
          <mxGeometry width="50" height="50" relative="1" as="geometry">
            <mxPoint x="650" y="110" as="sourcePoint" />
            <mxPoint x="700" y="60" as="targetPoint" />
          </mxGeometry>
        </mxCell>
      </root>
    </mxGraphModel>
  </diagram>
</mxfile>
